<svg width="1000" height="700" viewBox="0 0 1000 700" xmlns="http://www.w3.org/2000/svg">
  <defs><linearGradient id="g977fak" x1="0" y1="0" x2="1" y2="1"><stop offset="0" stop-color="#0B1F3A"/><stop offset="1" stop-color="#43A047"/></linearGradient></defs>
  <rect width="1000" height="700" fill="url(#g977fak)"/>
  
  <g transform="translate(500,300) scale(1.8)" opacity="0.9">
    <rect x="-60" y="-40" width="120" height="80" rx="6" fill="#FFC107" opacity="0.18" stroke="#FFC107" stroke-width="3"/>
    <line x1="-60" y1="-13" x2="60" y2="-13" stroke="#FFC107" stroke-width="2"/>
    <line x1="-60" y1="13" x2="60" y2="13" stroke="#FFC107" stroke-width="2"/>
    <line x1="-20" y1="-40" x2="-20" y2="40" stroke="#FFC107" stroke-width="2"/>
    <line x1="20" y1="-40" x2="20" y2="40" stroke="#FFC107" stroke-width="2"/>
  </g><circle cx="820" cy="150" r="40" fill="#FFC107" opacity="0.85"/><line x1="868.0" y1="150.0" x2="878.0" y2="150.0" stroke="#FFC107" stroke-width="3" stroke-linecap="round"/><line x1="853.9" y1="183.9" x2="861.0" y2="191.0" stroke="#FFC107" stroke-width="3" stroke-linecap="round"/><line x1="820.0" y1="198.0" x2="820.0" y2="208.0" stroke="#FFC107" stroke-width="3" stroke-linecap="round"/><line x1="786.1" y1="183.9" x2="779.0" y2="191.0" stroke="#FFC107" stroke-width="3" stroke-linecap="round"/><line x1="772.0" y1="150.0" x2="762.0" y2="150.0" stroke="#FFC107" stroke-width="3" stroke-linecap="round"/><line x1="786.1" y1="116.1" x2="779.0" y2="109.0" stroke="#FFC107" stroke-width="3" stroke-linecap="round"/><line x1="820.0" y1="102.0" x2="820.0" y2="92.0" stroke="#FFC107" stroke-width="3" stroke-linecap="round"/><line x1="853.9" y1="116.1" x2="861.0" y2="109.0" stroke="#FFC107" stroke-width="3" stroke-linecap="round"/>
  <text x="500" y="644" text-anchor="middle" font-family="Arial, sans-serif" font-size="39" font-weight="700" fill="#FFFFFF">Suryoday Solar Team</text>
  <text x="500" y="674" text-anchor="middle" font-family="Arial, sans-serif" font-size="22" fill="#FFFFFF" opacity="0.8">Nashik, Maharashtra</text>
</svg>
