<svg width="800" height="600" viewBox="0 0 800 600" xmlns="http://www.w3.org/2000/svg">
  <defs><linearGradient id="gf9m95w" x1="0" y1="0" x2="1" y2="1"><stop offset="0" stop-color="#0e2a4d"/><stop offset="1" stop-color="#43A047"/></linearGradient></defs>
  <rect width="800" height="600" fill="url(#gf9m95w)"/>
  
  <g transform="translate(400,240) scale(1.3)" opacity="0.9">
    <rect x="-60" y="-40" width="120" height="80" rx="6" fill="#FFC107" opacity="0.18" stroke="#FFC107" stroke-width="3"/>
    <line x1="-60" y1="-13" x2="60" y2="-13" stroke="#FFC107" stroke-width="2"/>
    <line x1="-60" y1="13" x2="60" y2="13" stroke="#FFC107" stroke-width="2"/>
    <line x1="-20" y1="-40" x2="-20" y2="40" stroke="#FFC107" stroke-width="2"/>
    <line x1="20" y1="-40" x2="20" y2="40" stroke="#FFC107" stroke-width="2"/>
  </g><circle cx="150" cy="110" r="26" fill="#FFC107" opacity="0.85"/><line x1="184.0" y1="110.0" x2="194.0" y2="110.0" stroke="#FFC107" stroke-width="3" stroke-linecap="round"/><line x1="174.0" y1="134.0" x2="181.1" y2="141.1" stroke="#FFC107" stroke-width="3" stroke-linecap="round"/><line x1="150.0" y1="144.0" x2="150.0" y2="154.0" stroke="#FFC107" stroke-width="3" stroke-linecap="round"/><line x1="126.0" y1="134.0" x2="118.9" y2="141.1" stroke="#FFC107" stroke-width="3" stroke-linecap="round"/><line x1="116.0" y1="110.0" x2="106.0" y2="110.0" stroke="#FFC107" stroke-width="3" stroke-linecap="round"/><line x1="126.0" y1="86.0" x2="118.9" y2="78.9" stroke="#FFC107" stroke-width="3" stroke-linecap="round"/><line x1="150.0" y1="76.0" x2="150.0" y2="66.0" stroke="#FFC107" stroke-width="3" stroke-linecap="round"/><line x1="174.0" y1="86.0" x2="181.1" y2="78.9" stroke="#FFC107" stroke-width="3" stroke-linecap="round"/>
  <text x="400" y="544" text-anchor="middle" font-family="Arial, sans-serif" font-size="33" font-weight="700" fill="#FFFFFF">Indiranagar, Nashik</text>
  <text x="400" y="574" text-anchor="middle" font-family="Arial, sans-serif" font-size="19" fill="#FFFFFF" opacity="0.8">3 kW Residential</text>
</svg>
