<svg width="1200" height="900" viewBox="0 0 1200 900" xmlns="http://www.w3.org/2000/svg">
  <defs><linearGradient id="gs6n76i" x1="0" y1="0" x2="1" y2="1"><stop offset="0" stop-color="#0B1F3A"/><stop offset="1" stop-color="#173a68"/></linearGradient></defs>
  <rect width="1200" height="900" fill="url(#gs6n76i)"/>
  
  <g transform="translate(600,420) scale(2.2)" opacity="0.9">
    <rect x="-60" y="-40" width="120" height="80" rx="6" fill="#FFC107" opacity="0.18" stroke="#FFC107" stroke-width="3"/>
    <line x1="-60" y1="-13" x2="60" y2="-13" stroke="#FFC107" stroke-width="2"/>
    <line x1="-60" y1="13" x2="60" y2="13" stroke="#FFC107" stroke-width="2"/>
    <line x1="-20" y1="-40" x2="-20" y2="40" stroke="#FFC107" stroke-width="2"/>
    <line x1="20" y1="-40" x2="20" y2="40" stroke="#FFC107" stroke-width="2"/>
  </g><circle cx="950" cy="200" r="50" fill="#FFC107" opacity="0.85"/><line x1="1008.0" y1="200.0" x2="1018.0" y2="200.0" stroke="#FFC107" stroke-width="3" stroke-linecap="round"/><line x1="991.0" y1="241.0" x2="998.1" y2="248.1" stroke="#FFC107" stroke-width="3" stroke-linecap="round"/><line x1="950.0" y1="258.0" x2="950.0" y2="268.0" stroke="#FFC107" stroke-width="3" stroke-linecap="round"/><line x1="909.0" y1="241.0" x2="901.9" y2="248.1" stroke="#FFC107" stroke-width="3" stroke-linecap="round"/><line x1="892.0" y1="200.0" x2="882.0" y2="200.0" stroke="#FFC107" stroke-width="3" stroke-linecap="round"/><line x1="909.0" y1="159.0" x2="901.9" y2="151.9" stroke="#FFC107" stroke-width="3" stroke-linecap="round"/><line x1="950.0" y1="142.0" x2="950.0" y2="132.0" stroke="#FFC107" stroke-width="3" stroke-linecap="round"/><line x1="991.0" y1="159.0" x2="998.1" y2="151.9" stroke="#FFC107" stroke-width="3" stroke-linecap="round"/>
  <text x="600" y="844" text-anchor="middle" font-family="Arial, sans-serif" font-size="50" font-weight="700" fill="#FFFFFF">Suryoday Solar</text>
  <text x="600" y="874" text-anchor="middle" font-family="Arial, sans-serif" font-size="29" fill="#FFFFFF" opacity="0.8">Rooftop Solar Installation — Nashik</text>
</svg>
