<svg width="800" height="600" viewBox="0 0 800 600" xmlns="http://www.w3.org/2000/svg">
  <defs><linearGradient id="grlr76b" x1="0" y1="0" x2="1" y2="1"><stop offset="0" stop-color="#0B1F3A"/><stop offset="1" stop-color="#12305c"/></linearGradient></defs>
  <rect width="800" height="600" fill="url(#grlr76b)"/>
  
  <g transform="translate(400,250) scale(1.4)" opacity="0.9">
    <rect x="-60" y="-40" width="120" height="80" rx="6" fill="#FFC107" opacity="0.18" stroke="#FFC107" stroke-width="3"/>
    <line x1="-60" y1="-13" x2="60" y2="-13" stroke="#FFC107" stroke-width="2"/>
    <line x1="-60" y1="13" x2="60" y2="13" stroke="#FFC107" stroke-width="2"/>
    <line x1="-20" y1="-40" x2="-20" y2="40" stroke="#FFC107" stroke-width="2"/>
    <line x1="20" y1="-40" x2="20" y2="40" stroke="#FFC107" stroke-width="2"/>
  </g><circle cx="620" cy="130" r="30" fill="#FFC107" opacity="0.85"/><line x1="658.0" y1="130.0" x2="668.0" y2="130.0" stroke="#FFC107" stroke-width="3" stroke-linecap="round"/><line x1="646.9" y1="156.9" x2="653.9" y2="163.9" stroke="#FFC107" stroke-width="3" stroke-linecap="round"/><line x1="620.0" y1="168.0" x2="620.0" y2="178.0" stroke="#FFC107" stroke-width="3" stroke-linecap="round"/><line x1="593.1" y1="156.9" x2="586.1" y2="163.9" stroke="#FFC107" stroke-width="3" stroke-linecap="round"/><line x1="582.0" y1="130.0" x2="572.0" y2="130.0" stroke="#FFC107" stroke-width="3" stroke-linecap="round"/><line x1="593.1" y1="103.1" x2="586.1" y2="96.1" stroke="#FFC107" stroke-width="3" stroke-linecap="round"/><line x1="620.0" y1="92.0" x2="620.0" y2="82.0" stroke="#FFC107" stroke-width="3" stroke-linecap="round"/><line x1="646.9" y1="103.1" x2="653.9" y2="96.1" stroke="#FFC107" stroke-width="3" stroke-linecap="round"/>
  <text x="400" y="544" text-anchor="middle" font-family="Arial, sans-serif" font-size="33" font-weight="700" fill="#FFFFFF">Commercial Solar</text>
  <text x="400" y="574" text-anchor="middle" font-family="Arial, sans-serif" font-size="19" fill="#FFFFFF" opacity="0.8">For shops, offices & hotels</text>
</svg>
